<svg width="57" height="57" viewBox="0 0 57 57" fill="none" xmlns="http://www.w3.org/2000/svg">
<g id="iconamoon:arrow-bottom-left-2-fill">
<path id="Vector" fill-rule="evenodd" clip-rule="evenodd" d="M29.6821 38.8568L38.9072 29.2301C39.213 28.9109 39.3796 28.4834 39.3702 28.0414C39.3607 27.5995 39.1762 27.1794 38.857 26.8736L29.2302 17.6485C28.9922 17.4205 28.692 17.2682 28.3674 17.2108C28.0429 17.1535 27.7086 17.1936 27.4069 17.3262C27.1051 17.4588 26.8495 17.6779 26.6722 17.9557C26.495 18.2336 26.4041 18.5578 26.4111 18.8873L26.8127 37.7392C26.8198 38.0687 26.9244 38.3887 27.1133 38.6588C27.3022 38.9289 27.567 39.1368 27.8741 39.2565C28.1812 39.3761 28.5169 39.402 28.8387 39.3308C29.1605 39.2597 29.454 39.0948 29.6821 38.8568Z" fill="white"/>
</g>
</svg>
